# xmcd
#
# Track frame offsets:
#	150
#	7332
#	17635
#	24665
#	34797
#	45397
#	55567
#	67760
#	82057
#	92635
#	100460
#	108677
#	118762
#	130247
#	138352
#	145515
#
# Disc length: 2147 seconds
#
# Revision: 0
# Processed by: cddbd v1.5.2PL0 Copyright (c) Steve Scherf et al.
# Submitted via: dBpowerAMP V4.0
#
DISCID=d4086110
DTITLE=Sons of the Pioneers - Western Hymns and Spirituals
DYEAR=2008
DGENRE=Gospel
TTITLE0=One More River To Cross
TTITLE1=When They Ring Those Golden Bells
TTITLE2=You Must Come in At the Door
TTITLE3=Lord, You Made the Cowboy Happy
TTITLE4=Leaning On the Everlasting Arms
TTITLE5=Power in the Blood
TTITLE6=The Touch of God's Hand
TTITLE7=What You Gonna Say to Peter
TTITLE8=Lead Me Gently Home, Father
TTITLE9=Keep A-Inchin Along
TTITLE10=Standin' in the Need of Prayer
TTITLE11=Old Time Religion
TTITLE12=Swing Low, Sweet Chariot
TTITLE13=Dem Golden Slippers
TTITLE14=We Are Climbing Jacob's Ladder
TTITLE15=Cowboy's Dream (Roll On)
EXTD=
EXTT0=
EXTT1=
EXTT2=
EXTT3=
EXTT4=
EXTT5=
EXTT6=
EXTT7=
EXTT8=
EXTT9=
EXTT10=
EXTT11=
EXTT12=
EXTT13=
EXTT14=
EXTT15=
PLAYORDER=
